<?xml version="1.0" encoding="UTF-8" standalone="no"?>
<!DOCTYPE svg PUBLIC "-//W3C//DTD SVG 1.1//EN"
 "http://www.w3.org/Graphics/SVG/1.1/DTD/svg11.dtd">
<!-- Generated by graphviz version 2.43.0 (0)
 -->
<!-- Title: %3 Pages: 1 -->
<svg width="714pt" height="188pt"
 viewBox="0.00 0.00 713.74 188.00" xmlns="http://www.w3.org/2000/svg" xmlns:xlink="http://www.w3.org/1999/xlink">
<g id="graph0" class="graph" transform="scale(1 1) rotate(0) translate(4 184)">
<title>%3</title>
<polygon fill="white" stroke="transparent" points="-4,4 -4,-184 709.74,-184 709.74,4 -4,4"/>
<!-- U -->
<g id="node1" class="node">
<title>U</title>
<ellipse fill="none" stroke="black" cx="100.74" cy="-162" rx="100.97" ry="18"/>
<text text-anchor="middle" x="100.74" y="-157.8" font-family="Times,serif" font-size="14.00">Unobserved Confounders</text>
</g>
<!-- y -->
<g id="node2" class="node">
<title>y</title>
<ellipse fill="none" stroke="black" cx="408.74" cy="-18" rx="27" ry="18"/>
<text text-anchor="middle" x="408.74" y="-13.8" font-family="Times,serif" font-size="14.00">y</text>
</g>
<!-- U&#45;&gt;y -->
<g id="edge1" class="edge">
<title>U&#45;&gt;y</title>
<path fill="none" stroke="black" d="M135.47,-144.99C196,-117.08 319.86,-59.97 377.7,-33.31"/>
<polygon fill="black" stroke="black" points="379.43,-36.36 387.05,-29 376.5,-30.01 379.43,-36.36"/>
</g>
<!-- v0 -->
<g id="node3" class="node">
<title>v0</title>
<ellipse fill="none" stroke="black" cx="436.74" cy="-90" rx="27" ry="18"/>
<text text-anchor="middle" x="436.74" y="-85.8" font-family="Times,serif" font-size="14.00">v0</text>
</g>
<!-- U&#45;&gt;v0 -->
<g id="edge3" class="edge">
<title>U&#45;&gt;v0</title>
<path fill="none" stroke="black" d="M163.54,-147.92C233.81,-133.28 345.18,-110.07 401.55,-98.33"/>
<polygon fill="black" stroke="black" points="402.34,-101.74 411.42,-96.27 400.91,-94.89 402.34,-101.74"/>
</g>
<!-- v0&#45;&gt;y -->
<g id="edge2" class="edge">
<title>v0&#45;&gt;y</title>
<path fill="none" stroke="black" d="M430.1,-72.41C426.82,-64.22 422.79,-54.14 419.12,-44.95"/>
<polygon fill="black" stroke="black" points="422.29,-43.45 415.32,-35.47 415.79,-46.05 422.29,-43.45"/>
</g>
<!-- W0 -->
<g id="node4" class="node">
<title>W0</title>
<ellipse fill="none" stroke="black" cx="246.74" cy="-162" rx="27" ry="18"/>
<text text-anchor="middle" x="246.74" y="-157.8" font-family="Times,serif" font-size="14.00">W0</text>
</g>
<!-- W0&#45;&gt;y -->
<g id="edge11" class="edge">
<title>W0&#45;&gt;y</title>
<path fill="none" stroke="black" d="M262.56,-147.13C291.19,-122.04 351.69,-69 385.18,-39.64"/>
<polygon fill="black" stroke="black" points="387.87,-41.95 393.08,-32.72 383.25,-36.68 387.87,-41.95"/>
</g>
<!-- W0&#45;&gt;v0 -->
<g id="edge4" class="edge">
<title>W0&#45;&gt;v0</title>
<path fill="none" stroke="black" d="M267.88,-150.54C272.72,-148.28 277.87,-145.98 282.74,-144 323.5,-127.42 371.63,-111.41 403.09,-101.4"/>
<polygon fill="black" stroke="black" points="404.21,-104.72 412.69,-98.37 402.1,-98.04 404.21,-104.72"/>
</g>
<!-- W1 -->
<g id="node5" class="node">
<title>W1</title>
<ellipse fill="none" stroke="black" cx="318.74" cy="-162" rx="27" ry="18"/>
<text text-anchor="middle" x="318.74" y="-157.8" font-family="Times,serif" font-size="14.00">W1</text>
</g>
<!-- W1&#45;&gt;y -->
<g id="edge12" class="edge">
<title>W1&#45;&gt;y</title>
<path fill="none" stroke="black" d="M328.71,-145.26C344.32,-120.63 374.65,-72.78 393.15,-43.58"/>
<polygon fill="black" stroke="black" points="396.32,-45.13 398.71,-34.81 390.41,-41.38 396.32,-45.13"/>
</g>
<!-- W1&#45;&gt;v0 -->
<g id="edge5" class="edge">
<title>W1&#45;&gt;v0</title>
<path fill="none" stroke="black" d="M338.22,-149.44C357.35,-138.09 386.74,-120.66 408.44,-107.78"/>
<polygon fill="black" stroke="black" points="410.41,-110.69 417.22,-102.58 406.83,-104.67 410.41,-110.69"/>
</g>
<!-- W2 -->
<g id="node6" class="node">
<title>W2</title>
<ellipse fill="none" stroke="black" cx="390.74" cy="-162" rx="27" ry="18"/>
<text text-anchor="middle" x="390.74" y="-157.8" font-family="Times,serif" font-size="14.00">W2</text>
</g>
<!-- W2&#45;&gt;y -->
<g id="edge13" class="edge">
<title>W2&#45;&gt;y</title>
<path fill="none" stroke="black" d="M392.46,-143.91C394.32,-125.98 397.45,-96.97 400.74,-72 401.84,-63.57 403.18,-54.4 404.44,-46.1"/>
<polygon fill="black" stroke="black" points="407.91,-46.58 405.98,-36.16 400.99,-45.51 407.91,-46.58"/>
</g>
<!-- W2&#45;&gt;v0 -->
<g id="edge6" class="edge">
<title>W2&#45;&gt;v0</title>
<path fill="none" stroke="black" d="M401.17,-145.12C406.94,-136.34 414.22,-125.26 420.69,-115.42"/>
<polygon fill="black" stroke="black" points="423.77,-117.1 426.34,-106.82 417.92,-113.26 423.77,-117.1"/>
</g>
<!-- W3 -->
<g id="node7" class="node">
<title>W3</title>
<ellipse fill="none" stroke="black" cx="606.74" cy="-162" rx="27" ry="18"/>
<text text-anchor="middle" x="606.74" y="-157.8" font-family="Times,serif" font-size="14.00">W3</text>
</g>
<!-- W3&#45;&gt;y -->
<g id="edge14" class="edge">
<title>W3&#45;&gt;y</title>
<path fill="none" stroke="black" d="M585.88,-150.17C567.03,-140.07 538.78,-124.18 515.74,-108 495.34,-93.68 491.89,-87.95 472.74,-72 459.58,-61.05 444.88,-48.87 432.88,-38.95"/>
<polygon fill="black" stroke="black" points="435,-36.16 425.06,-32.48 430.54,-41.55 435,-36.16"/>
</g>
<!-- W3&#45;&gt;v0 -->
<g id="edge7" class="edge">
<title>W3&#45;&gt;v0</title>
<path fill="none" stroke="black" d="M585.53,-150.68C580.7,-148.41 575.56,-146.07 570.74,-144 530,-126.53 518.88,-124.49 477.74,-108 474.82,-106.83 471.8,-105.61 468.78,-104.37"/>
<polygon fill="black" stroke="black" points="469.83,-101.02 459.25,-100.45 467.17,-107.49 469.83,-101.02"/>
</g>
<!-- W4 -->
<g id="node8" class="node">
<title>W4</title>
<ellipse fill="none" stroke="black" cx="678.74" cy="-162" rx="27" ry="18"/>
<text text-anchor="middle" x="678.74" y="-157.8" font-family="Times,serif" font-size="14.00">W4</text>
</g>
<!-- W4&#45;&gt;y -->
<g id="edge15" class="edge">
<title>W4&#45;&gt;y</title>
<path fill="none" stroke="black" d="M657.54,-150.66C652.7,-148.4 647.57,-146.06 642.74,-144 601.59,-126.44 586.89,-131.36 548.74,-108 528.34,-95.51 528.34,-85.7 508.74,-72 486.91,-56.74 460.16,-42.78 439.83,-33.03"/>
<polygon fill="black" stroke="black" points="441.23,-29.82 430.69,-28.72 438.24,-36.15 441.23,-29.82"/>
</g>
<!-- W4&#45;&gt;v0 -->
<g id="edge8" class="edge">
<title>W4&#45;&gt;v0</title>
<path fill="none" stroke="black" d="M657.7,-150.25C652.86,-148.01 647.68,-145.78 642.74,-144 611.38,-132.68 521.78,-110.96 471.69,-99.15"/>
<polygon fill="black" stroke="black" points="472.47,-95.73 461.93,-96.85 470.87,-102.55 472.47,-95.73"/>
</g>
<!-- Z0 -->
<g id="node9" class="node">
<title>Z0</title>
<ellipse fill="none" stroke="black" cx="462.74" cy="-162" rx="27" ry="18"/>
<text text-anchor="middle" x="462.74" y="-157.8" font-family="Times,serif" font-size="14.00">Z0</text>
</g>
<!-- Z0&#45;&gt;v0 -->
<g id="edge9" class="edge">
<title>Z0&#45;&gt;v0</title>
<path fill="none" stroke="black" d="M456.57,-144.41C453.57,-136.34 449.9,-126.43 446.52,-117.35"/>
<polygon fill="black" stroke="black" points="449.8,-116.11 443.03,-107.96 443.23,-118.55 449.8,-116.11"/>
</g>
<!-- Z1 -->
<g id="node10" class="node">
<title>Z1</title>
<ellipse fill="none" stroke="black" cx="534.74" cy="-162" rx="27" ry="18"/>
<text text-anchor="middle" x="534.74" y="-157.8" font-family="Times,serif" font-size="14.00">Z1</text>
</g>
<!-- Z1&#45;&gt;v0 -->
<g id="edge10" class="edge">
<title>Z1&#45;&gt;v0</title>
<path fill="none" stroke="black" d="M516.76,-148.16C501.7,-137.41 480,-121.91 463,-109.76"/>
<polygon fill="black" stroke="black" points="464.77,-106.72 454.6,-103.76 460.7,-112.42 464.77,-106.72"/>
</g>
<!-- X0 -->
<g id="node11" class="node">
<title>X0</title>
<ellipse fill="none" stroke="black" cx="584.74" cy="-90" rx="27" ry="18"/>
<text text-anchor="middle" x="584.74" y="-85.8" font-family="Times,serif" font-size="14.00">X0</text>
</g>
<!-- X0&#45;&gt;y -->
<g id="edge16" class="edge">
<title>X0&#45;&gt;y</title>
<path fill="none" stroke="black" d="M562.21,-79.57C556.22,-77.09 549.74,-74.42 543.74,-72 508.8,-57.9 468.58,-42.18 441.2,-31.55"/>
<polygon fill="black" stroke="black" points="442.31,-28.22 431.72,-27.87 439.78,-34.75 442.31,-28.22"/>
</g>
</g>
</svg>
