<?xml version="1.0" encoding="UTF-8" standalone="no"?>
<!DOCTYPE svg PUBLIC "-//W3C//DTD SVG 1.1//EN"
 "http://www.w3.org/Graphics/SVG/1.1/DTD/svg11.dtd">
<!-- Generated by graphviz version 2.43.0 (0)
 -->
<!-- Title: %3 Pages: 1 -->
<svg width="242pt" height="67pt"
 viewBox="0.00 0.00 242.00 67.00" xmlns="http://www.w3.org/2000/svg" xmlns:xlink="http://www.w3.org/1999/xlink">
<g id="graph0" class="graph" transform="scale(1 1) rotate(0) translate(4 63)">
<title>%3</title>
<polygon fill="white" stroke="transparent" points="-4,4 -4,-63 238,-63 238,4 -4,4"/>
<!-- X -->
<g id="node1" class="node">
<title>X</title>
<ellipse fill="none" stroke="black" cx="27" cy="-18" rx="27" ry="18"/>
<text text-anchor="middle" x="27" y="-13.8" font-family="Times,serif" font-size="14.00">X</text>
</g>
<!-- Y -->
<g id="node2" class="node">
<title>Y</title>
<ellipse fill="none" stroke="black" cx="117" cy="-41" rx="27" ry="18"/>
<text text-anchor="middle" x="117" y="-36.8" font-family="Times,serif" font-size="14.00">Y</text>
</g>
<!-- X&#45;&gt;Y -->
<g id="edge1" class="edge">
<title>X&#45;&gt;Y</title>
<path fill="none" stroke="black" d="M52.51,-24.41C61.57,-26.77 72.01,-29.5 81.78,-32.05"/>
<polygon fill="black" stroke="black" points="81.06,-35.49 91.62,-34.63 82.83,-28.71 81.06,-35.49"/>
</g>
<!-- Z -->
<g id="node3" class="node">
<title>Z</title>
<ellipse fill="none" stroke="black" cx="207" cy="-18" rx="27" ry="18"/>
<text text-anchor="middle" x="207" y="-13.8" font-family="Times,serif" font-size="14.00">Z</text>
</g>
<!-- X&#45;&gt;Z -->
<g id="edge3" class="edge">
<title>X&#45;&gt;Z</title>
<path fill="none" stroke="black" d="M53.92,-15.95C65.03,-15.17 78.14,-14.38 90,-14 113.99,-13.23 120.01,-13.23 144,-14 152.43,-14.27 161.5,-14.75 170.02,-15.28"/>
<polygon fill="black" stroke="black" points="169.87,-18.78 180.08,-15.95 170.33,-11.8 169.87,-18.78"/>
</g>
<!-- Y&#45;&gt;Z -->
<g id="edge2" class="edge">
<title>Y&#45;&gt;Z</title>
<path fill="none" stroke="black" d="M142.51,-34.59C151.57,-32.23 162.01,-29.5 171.78,-26.95"/>
<polygon fill="black" stroke="black" points="172.83,-30.29 181.62,-24.37 171.06,-23.51 172.83,-30.29"/>
</g>
</g>
</svg>
