<?xml version="1.0" encoding="UTF-8" standalone="no"?>
<!DOCTYPE svg PUBLIC "-//W3C//DTD SVG 1.1//EN"
 "http://www.w3.org/Graphics/SVG/1.1/DTD/svg11.dtd">
<!-- Generated by graphviz version 2.43.0 (0)
 -->
<!-- Title: %3 Pages: 1 -->
<svg width="62pt" height="116pt"
 viewBox="0.00 0.00 62.00 116.00" xmlns="http://www.w3.org/2000/svg" xmlns:xlink="http://www.w3.org/1999/xlink">
<g id="graph0" class="graph" transform="scale(1 1) rotate(0) translate(4 112)">
<title>%3</title>
<polygon fill="white" stroke="transparent" points="-4,4 -4,-112 58,-112 58,4 -4,4"/>
<!-- X_x -->
<g id="node1" class="node">
<title>X_x</title>
<ellipse fill="none" stroke="black" cx="27" cy="-90" rx="27" ry="18"/>
<text text-anchor="middle" x="27" y="-85.8" font-family="Times,serif" font-size="14.00">X_x</text>
</g>
<!-- Y_y -->
<g id="node2" class="node">
<title>Y_y</title>
<ellipse fill="none" stroke="black" cx="27" cy="-18" rx="27" ry="18"/>
<text text-anchor="middle" x="27" y="-13.8" font-family="Times,serif" font-size="14.00">Y_y</text>
</g>
<!-- X_x&#45;&gt;Y_y -->
<g id="edge1" class="edge">
<title>X_x&#45;&gt;Y_y</title>
<path fill="none" stroke="black" d="M21.16,-72.41C20.3,-64.51 20.05,-54.85 20.41,-45.94"/>
<polygon fill="black" stroke="black" points="23.9,-46.18 21.12,-35.96 16.92,-45.68 23.9,-46.18"/>
</g>
<!-- Y_y&#45;&gt;X_x -->
<g id="edge2" class="edge">
<title>Y_y&#45;&gt;X_x</title>
<path fill="none" stroke="black" d="M32.88,-35.96C33.71,-43.83 33.95,-53.37 33.58,-62.19"/>
<polygon fill="black" stroke="black" points="30.07,-62.18 32.84,-72.41 37.06,-62.69 30.07,-62.18"/>
</g>
</g>
</svg>
